# xmcd
#
# Track frame offsets: 
#        150
#        14051
#        19459
#        30520
#        35071
#        48051
#        53348
#        59923
#        77760
#        84981
#        92089
#        117737
#        121178
#        129615
#        148877
#        155091
#        156471
#        161235
#        167490
#        169600
#        173483
#        176262
#        183568
#        185909
#        187759
#        191127
#        199603
#        210244
#        216985
#        227790
#
# Disc length: 3195 seconds
#
# Revision: 4
# Processed by: cddbd v1.5.2PL0 Copyright (c) Steve Scherf et al.
# Submitted via: ExactAudioCopy v0.99pb5
#
DISCID=ab0c791e
DTITLE=Gabriel Tacchino - Poulenc - L'oeuvre pour piano [CD5]
DYEAR=2007
DGENRE=Classical
TTITLE0=Les Soirées de Nazelles, FP.84  (Suite pour piano) - Préambule
TTITLE1=Les Soirées de Nazelles, FP.84 - Variations - I. Le comble de 
TTITLE1=la distinction
TTITLE2=Les Soirées de Nazelles, FP.84 - Variations - II. Le coeur sur
TTITLE2=la main
TTITLE3=Les Soirées de Nazelles, FP.84 - Variations - III. La desinvol
TTITLE3=ture et la discrétion
TTITLE4=Les Soirées de Nazelles, FP.84 - Variations - IV. Le goût du m
TTITLE4=alheur
TTITLE5=Les Soirées de Nazelles, FP.84 - Variations - V. L'alerte viei
TTITLE5=llesse
TTITLE6=Les Soirées de Nazelles, FP.84 - Cadence
TTITLE7=Les Soirées de Nazelles, FP.84 - Finale
TTITLE8=Bourrée  ''Au Pavillon  d'Auvergne''  FP.87
TTITLE9=Française d'après Claude Gervaise  (XVIè siècle)  FP.103
TTITLE10=Mélancolie, FP.105
TTITLE11=Deux improvisations, FP.113 - N°11 en sol mineur
TTITLE12=Deux improvisations, FP.113 - N°12 en mi bémol mineur ''Homma
TTITLE12=ge à Schubert''
TTITLE13=Intermezzo en la bémol majeur, FP.118
TTITLE14=Thème varié, FP.151 - Theme
TTITLE15=Thème varié, FP.151 - Var. I Joyeuse
TTITLE16=Thème varié, FP.151 - Var. II Noble
TTITLE17=Thème varié, FP.151 - Var. III: Pastorale
TTITLE18=Thème varié, FP.151 - Var. IV: Sarcastique
TTITLE19=Thème varié, FP.151 - Var. V Mélancolique
TTITLE20=Thème varié, FP.151 - Var. VI: Ironique
TTITLE21=Thème varié, FP.151 - Var. VII Élégiaque
TTITLE22=Thème varié, FP.151 - Var. VIII: Volubile
TTITLE23=Thème varié, FP.151 - Var. IX  Fantasque
TTITLE24=Thème varié, FP.151 - Var. X Sibylline
TTITLE25=Thème varié, FP.151 - Finale
TTITLE26=Deux improvisations, FP.170 - N°13 en la mineur
TTITLE27=Deux improvisations, FP.170 - N°14 en ré bémpl majeur
TTITLE28=Novelette en mi mineur, FP.173, sur un theme de Manuel de Fal
TTITLE28=la
TTITLE29=Improvisation en ut mineur, Fp.176 ''Hommage à Edith Piaf''
EXTD=YEAR: 1982
EXTT0=
EXTT1=
EXTT2=
EXTT3=
EXTT4=
EXTT5=
EXTT6=
EXTT7=
EXTT8=
EXTT9=
EXTT10=
EXTT11=
EXTT12=
EXTT13=
EXTT14=
EXTT15=
EXTT16=
EXTT17=
EXTT18=
EXTT19=
EXTT20=
EXTT21=
EXTT22=
EXTT23=
EXTT24=
EXTT25=
EXTT26=
EXTT27=
EXTT28=
EXTT29=
PLAYORDER=
